<svg id="Capa_1" enable-background="new 0 0 511.95 511.95" height="512" viewBox="0 0 511.95 511.95" width="512" xmlns="http://www.w3.org/2000/svg"><g><path d="m480.904 330.763c-8.09-8.091-17.258-14.713-27.178-19.736v-207.73h-33.619v-67.238h-210.474l-45.963-36.059h-163.67v331.487c0 26.47 21.202 48.586 47.264 49.3l255.362.015c-1.949 8.101-2.958 16.488-2.958 25.032 0 28.357 11.043 55.019 31.096 75.07 20.697 20.697 47.884 31.046 75.071 31.046s54.373-10.349 75.07-31.046c41.394-41.394 41.394-108.747-.001-150.141zm-413.666 1.425c0 5.07-2.002 9.811-5.638 13.347-3.559 3.463-8.209 5.332-13.209 5.259h-.479c-9.893-.369-17.912-8.992-17.912-19.307v-301.487h123.307l45.963 36.059h190.838v37.238h-322.87zm26.326 18.607c2.407-5.815 3.674-12.106 3.674-18.607v-198.891h292.869 15 18.619v167.866c-5.855-.988-11.835-1.496-17.893-1.496-16.866 0-33.131 3.907-47.763 11.291v-20.158h-195.176v30h179.349c-4.022 3.021-7.86 6.343-11.48 9.963-6.112 6.112-11.382 12.84-15.762 20.041zm366.127 108.896c-29.698 29.697-78.02 29.697-107.716 0-14.386-14.386-22.309-33.513-22.309-53.857 0-20.346 7.923-39.473 22.309-53.858s33.513-22.309 53.858-22.309 39.472 7.923 53.857 22.309c29.699 29.697 29.699 78.018.001 107.715z"/><path d="m420.833 365.807h-30v25.026h-25.026v30h25.026v25.027h30v-25.027h25.027v-30h-25.027z"/></g></svg>