<svg id="Capa_1" enable-background="new 0 0 512 512" height="512" viewBox="0 0 512 512" width="512" xmlns="http://www.w3.org/2000/svg"><g><path d="m474.623 183.998v-183.998h-300.359v30h-76.887v52.983h-97.356v384.017c0 24.813 20.187 45 45 45h421.958c24.813 0 45-20.187 45-45v-283.002zm-30-153.998v153.998h-240.359v-153.998zm-270.359 30v123.998h-46.887v-123.998zm-114.243 407c0 8.271-6.729 15-15 15s-15-6.729-15-15v-354.017h67.356v71.014h-37.356zm421.958 0c0 8.271-6.729 15-15 15h-379.528c1.664-4.693 2.57-9.743 2.57-15v-253.002h391.958z"/><path d="m175 382h222v30h-222z"/></g></svg>